<svg xmlns="http://www.w3.org/2000/svg" width="32" height="32" viewBox="0 0 128 128">
  <path fill="#D777E0" d="M87,60c-3,-3 0.82,-9.51 1.74,-12.26c1.11,-3.32 -0.36,-6.04 -2.74,-7.74c-2.46,-1.75 -5.88,-2.44 -7.48,-3.38c-4.52,-2.62 -0.09,-9.98 0.67,-14.35c0.67,-3.85 -0.6,-7.28 -2.4,-10.69c-5.19,-9.84 -20.34,-9.84 -25.52,0.05c-1.17,2.24 -1.88,4.83 -2.08,7.35c-0.09,1.1 -0.04,6.4 -2.55,10.94c-2.06,3.71 -4.86,6.46 -3.99,12.21c1.78,11.73 14.37,14.48 18.42,14.14c1.89,-0.16 4.64,-0.69 6.31,0.28c4.25,2.47 4.38,6.16 6.45,10.37c2.59,5.27 9.42,8.01 14.93,5.98c3.8,-1.4 6.99,-4.08 10.15,-6.61c4.09,-3.29 10.97,0.96 10.97,0.96S106,56 95.15,59.72C91.04,61.13 90,63 87,60z"/>
  <path fill="#E59600" d="M27.02,73.43c-0.21,-0.34 -0.67,-0.47 -1.36,-0.61c-0.16,-0.03 -0.40,-0.09 -0.46,-0.11c-1.15,-0.54 -3.24,0.12 -4.07,0.52c-2.59,1.26 -2.7,5.45 -2.64,7.19c0.04,1.04 0.85,1.69 1.62,1.72l0.05,0c0.67,0 1.17,-0.47 1.25,-1.18c0.09,-0.83 0.4,-2.23 0.91,-4.12c0.19,-0.38 2,-1.29 2.87,-1.73c1.51,-0.76 1.79,-0.93 1.88,-1.25c0.04,-0.14 0.02,-0.32 -0.05,-0.43z"/>
  <path fill="#E59600" d="M98.26,38.21c-0.13,-0.08 -0.27,-0.15 -0.41,-0.21c-0.17,-0.08 -0.33,-0.15 -0.48,-0.26c-0.53,-0.40 -0.61,-1.24 -0.46,-1.84c0.11,-0.42 0.39,-0.92 0.68,-1.45c0.24,-0.44 0.49,-0.89 0.70,-1.38c0.28,-0.66 0.06,-1.32 -0.54,-1.63c-0.66,-0.34 -1.66,-0.18 -2.19,0.68c-0.87,1.42 -2.74,4.96 -1.16,7.23c0.62,0.90 1.65,1.49 2.74,1.57c0.08,0.01 0.15,0.01 0.23,0.01c0.39,0 0.73,-0.08 1.01,-0.24c0.48,-0.27 0.77,-0.77 0.73,-1.27c-0.02,-0.48 -0.33,-0.91 -0.85,-1.21z"/>
  <path fill="#FFB300" d="M103.62,40.38c-2,-2.38 -3.67,-3.99 -4.71,-5.29s-3.89,-0.33 -1.83,2.46c1.17,1.59 -0.28,1.31 -1.58,0.14s-0.82,-5.55 -1.95,-6.12c-0.79,-0.40 -1.57,-0.01 -1.75,0.44c-0.60,1.52 -0.56,4.59 0.43,6.96c0.88,2.11 4.98,4 5.20,6.26c0.26,2.74 -9.11,12.28 -9.11,12.28s-4.06,-8.94 -5.56,-12.25c-0.60,-1.33 -1.71,-5.25 -14.64,-6.40v-3.91h-8.5v3.84c-13.14,0.96 -12.67,3.32 -15.87,8.72C41.21,53.29 38,60.25 38,60.25s-8.69,11.21 -10.52,11.43c-1.84,0.23 -5.32,-0.14 -7.65,1.9c-1.33,1.17 -3.49,3 -4.42,4c-1.67,1.79 1.43,4.9 6.38,-0.62c1.42,-1.58 4.29,-1.18 4.58,-0.5c0.62,1.46 -0.21,2.73 -2.38,2.5c-2.33,-0.25 -2.75,2.04 -0.33,2.54c2.03,0.42 5.02,1.08 8.58,-2.62c2.25,-2.34 12,-13.25 12,-13.25s5.59,-8.44 8.19,-13l-0.77,18.71L55,76c1.99,1.12 9.87,5.81 12,5l9.5,-7.67l0.17,-19.67c3.19,6.02 6.90,15.71 10.90,15.27c2.88,-0.32 11.27,-11.85 16.08,-20.25c1.81,-3.15 1.54,-6.44 -0.03,-8.30z"/>
  <path fill="#FFCA28" d="M64.15,8.46c6.08,0.08 11.65,4.67 11.53,14.25c-0.10,7.70 -4.92,12.19 -9.09,13.61c-0.99,0.34 -1.95,0.50 -2.80,0.49c-0.84,-0.01 -1.79,-0.20 -2.77,-0.56c-4.14,-1.51 -8.86,-6.13 -8.76,-13.84c0.13,-9.57 5.82,-14.02 11.89,-13.95z"/>
  <path fill="#D777E0" d="M49.36,26.85c1.04,-5.33 0.53,-7.24 0.88,-9.18c0.30,-1.65 1.92,-12.53 13.93,-12.38c13.72,0.17 13.26,12.74 13.26,12.74l-0.12,4.48s-0.36,2.65 -1.87,5.75s-3.01,5.26 -3.01,5.26s1.99,-4.69 2.04,-9.15c0.01,-1.03 0.39,-4.85 -1.76,-5.36c-7.88,-1.87 -12.30,-6.12 -12.30,-6.12c-1.19,2.52 -4.86,4.96 -6.18,5.88c-1.08,0.76 -0.97,3.95 -0.97,5.30l0.41,6.20c-1.25,-0.84 -3.64,-2 -4.31,-3.42z"/>
  <path fill="#E59600" d="M62.58,26.83c0.04,-0.01 0.08,-0.02 0.11,-0.03l2.47,0.03c0.04,0 0.07,0.01 0.11,0.03c0.22,0.09 0.34,0.33 0.23,0.57s-0.61,0.93 -1.60,0.92c-0.99,-0.01 -1.47,-0.71 -1.58,-0.96c-0.09,-0.24 0.03,-0.47 0.26,-0.56z"/>
  <path fill="#795548" d="M60.95,29.67c1.10,0.67 4.75,0.72 5.87,0.07c0.64,-0.37 1.29,0.22 1.02,0.80c-0.27,0.57 -2.27,1.87 -3.99,1.85c-1.72,-0.02 -3.67,-1.37 -3.92,-1.94c-0.26,-0.60 0.39,-1.17 1.02,-0.78z"/>
  <path fill="#404040" d="M67.93,23.68a1.78,1.72 0,1 0,3.56 0a1.78,1.72 0,1 0,-3.56 0"/>
  <path fill="#404040" d="M56.44,23.53a1.78,1.72 0,1 0,3.56 0a1.78,1.72 0,1 0,-3.56 0"/>
  <path fill="#6D4C41" d="M67.19,20.44c0.33,-0.43 1.10,-1.05 2.57,-1.03c1.47,0.02 2.22,0.66 2.54,1.10c0.14,0.19 0.10,0.42 0,0.55c-0.10,0.12 -0.37,0.24 -0.67,0.13s-0.89,-0.42 -1.89,-0.44c-0.99,0 -1.59,0.29 -1.90,0.39c-0.31,0.10 -0.58,-0.02 -0.67,-0.15c-0.09,-0.14 -0.13,-0.36 0.02,-0.55z"/>
  <path fill="#6D4C41" d="M55.71,20.30c0.33,-0.43 1.10,-1.05 2.57,-1.03c1.47,0.02 2.22,0.66 2.54,1.10c0.14,0.19 0.10,0.42 0,0.55c-0.10,0.12 -0.37,0.24 -0.67,0.13s-0.89,-0.42 -1.89,-0.44c-0.99,0 -1.59,0.29 -1.90,0.39c-0.31,0.10 -0.58,-0.02 -0.67,-0.15c-0.10,-0.14 -0.13,-0.36 0.02,-0.55z"/>
  <path fill="#FFA1DE" d="M105.24,106.06c-0.20,0.06 -0.40,0.11 -0.61,0.15c-1.56,0.31 -3.16,0.12 -4.75,0.04c-2.23,-0.12 -4.47,-0.03 -6.68,0.26c-1.09,0.14 -2.23,0.29 -3.29,0.59c-0.26,0.08 -2.72,1.09 -2.75,1.06c-0.30,-0.43 -0.19,-1.42 -0.29,-1.98c-0.13,-0.76 -0.34,-1.51 -0.61,-2.23c-1,-2.65 -3.30,-4.41 -4.44,-6.95c-0.53,-1.18 -0.78,-2.54 -0.50,-3.81c0.15,-0.68 0.70,-2.44 1.07,-2.84c-0.19,0.20 -0.59,0.29 -0.83,0.41c-0.65,0.32 -1.26,0.72 -1.82,1.18c-1.32,1.11 -2.24,2.61 -3.01,4.13c-1.59,3.13 -2.56,7.04 -2,10.55c0.49,3.05 2.24,5.85 4.04,8.32c-2.08,1.65 -4.61,3.16 -7.17,2.87c-3.72,-0.43 -5.76,-1.93 -5.76,-7.93c0,-19.75 12.74,-16.44 10.70,-37.56c-0.10,-1.01 -6.73,3.31 -15.20,2.94c-8.73,-0.39 -9.42,-5.25 -9.77,-4.62c-2.10,3.82 -3.27,9.12 -4.08,13.38c-3.31,17.46 -0.80,33.46 10.06,39.12c7.49,3.90 20.05,1.49 24.97,-5.25c18.01,6.81 25.31,-9.58 25.72,-14.36c-0.44,1.26 -1.67,2.12 -3,2.53z"/>
  <path fill="#DE8BE9" d="M47.87,51.69c0.44,-0.51 1.11,-0.77 1.78,-0.68c-0.15,-0.44 -0.13,-0.92 0.04,-1.35c0.19,-0.49 0.57,-0.88 1.06,-1.10c0.32,-0.14 0.67,-0.19 1.02,-0.15c0.52,0.06 0.99,0.32 1.32,0.72c0.29,-0.87 1.16,-1.44 2.11,-1.34s1.66,0.87 1.76,1.78c0.40,-0.31 0.92,-0.46 1.44,-0.40c0.35,0.04 0.68,0.17 0.96,0.38c0.43,0.32 0.71,0.78 0.79,1.31c0.07,0.47 -0.03,0.93 -0.27,1.33c0.04,0 0.08,0.01 0.12,0.01c0.66,0.08 1.24,0.47 1.54,1.06c0.25,0.47 0.29,1.01 0.14,1.52c-0.16,0.51 -0.51,0.92 -0.98,1.17l-3.93,2.06c-0.06,0.35 -0.21,0.67 -0.44,0.94c-0.09,0.10 -0.22,0.16 -0.36,0.14L52,58.62c-0.14,-0.01 -0.26,-0.10 -0.32,-0.22c-0.17,-0.31 -0.24,-0.66 -0.22,-1.01l-3.37,-2.88c-0.84,-0.72 -0.94,-1.98 -0.22,-2.82z"/>
  <path fill="#DE8BE9" d="M64.86,52.82c0.35,-0.58 0.97,-0.94 1.65,-0.96c-0.22,-0.41 -0.28,-0.88 -0.18,-1.34c0.11,-0.52 0.42,-0.97 0.86,-1.26c0.29,-0.19 0.63,-0.30 0.98,-0.32c0.52,-0.03 1.03,0.16 1.42,0.49c0.15,-0.90 0.91,-1.62 1.86,-1.66s1.78,0.58 2.02,1.46c0.35,-0.38 0.84,-0.61 1.36,-0.64c0.35,-0.02 0.70,0.06 1.01,0.22c0.47,0.24 0.82,0.65 0.99,1.16c0.14,0.45 0.13,0.92 -0.05,1.35c0.04,0 0.08,-0.01 0.12,-0.01c0.66,-0.03 1.29,0.26 1.69,0.79c0.32,0.42 0.46,0.95 0.38,1.48c-0.07,0.53 -0.35,0.99 -0.77,1.31l-3.54,2.67c0,0.35 -0.10,0.69 -0.29,1c-0.07,0.12 -0.20,0.19 -0.33,0.20l-3.98,0.20c-0.14,0.01 -0.27,-0.05 -0.35,-0.16c-0.21,-0.28 -0.35,-0.61 -0.39,-0.96l-3.79,-2.29c-0.94,-0.57 -1.24,-1.79 -0.67,-2.73z"/>
</svg>
